Coordinates
version=1
nRows=14
nColumns=40
inDegrees=yes

Units are S.I. units (second, meters, Newtons, ...)
If the header above contains a line with 'inDegrees', this indicates whether rotational values are in degrees (yes) or radians (no).

endheader
time	pelvis_tilt	pelvis_list	pelvis_rotation	pelvis_tx	pelvis_ty	pelvis_tz	hip_flexion_r	hip_adduction_r	hip_rotation_r	knee_angle_r	knee_angle_r_beta	ankle_angle_r	subtalar_angle_r	mtp_angle_r	hip_flexion_l	hip_adduction_l	hip_rotation_l	knee_angle_l	knee_angle_l_beta	ankle_angle_l	subtalar_angle_l	mtp_angle_l	lumbar_extension	lumbar_bending	lumbar_rotation	arm_flex_r	arm_add_r	arm_rot_r	elbow_flex_r	pro_sup_r	wrist_flex_r	wrist_dev_r	arm_flex_l	arm_add_l	arm_rot_l	elbow_flex_l	pro_sup_l	wrist_flex_l	wrist_dev_l
      1.34999990	      0.62463417	     20.32333187	    -83.56080827	      0.03138201	      1.02606809	      0.29837402	     50.57135571	      0.29884814	      2.33728285	     12.69852441	      0.22163106	    -21.36167016	      0.00000000	      0.00000000	     37.75760764	      7.47994392	      2.71712440	     54.28985128	      0.94753666	     24.19778539	      0.00000000	      0.00000000	      8.89616846	      2.23630215	    -12.59250499	     44.43328117	     15.70995917	     75.95960767	    111.75091675	     35.71591263	      0.00000000	      0.00000000	     27.76314237	      7.83220175	     70.25914894	    126.72826602	     38.61528091	      0.00000000	      0.00000000
      1.35999990	      0.93518500	     20.20512711	    -83.51604163	      0.03088965	      1.01918172	      0.30344846	     50.22109546	      0.07099664	      1.95351743	     12.97898784	      0.22652607	    -21.62025619	      0.00000000	      0.00000000	     38.23331922	      7.75354448	      2.46616095	     56.36360711	      0.98373052	     25.05664023	      0.00000000	      0.00000000	      8.93769503	      2.00645427	    -12.63976193	     44.36580502	     15.75503676	     76.00026356	    111.67247983	     35.76852646	      0.00000000	      0.00000000	     27.69862812	      7.76263321	     70.28103639	    126.74053263	     38.69875886	      0.00000000	      0.00000000
      1.36999989	      1.28823723	     20.11076775	    -83.47978806	      0.03042507	      1.01195957	      0.30862847	     49.92501008	     -0.21351475	      1.54015584	     13.38196612	      0.23355937	    -21.95779986	      0.00000000	      0.00000000	     38.74918471	      8.07015936	      2.27263376	     58.53538570	      1.02163521	     25.93179863	      0.00000000	      0.00000000	      9.02035087	      1.73961642	    -12.72610034	     44.25501427	     15.80903228	     75.99899040	    111.59161654	     35.82697953	      0.00000000	      0.00000000	     27.63591273	      7.68633657	     70.31201066	    126.76614471	     38.78808826	      0.00000000	      0.00000000
      1.38000000	      1.72650994	     20.01727936	    -83.46789733	      0.03004521	      1.00458003	      0.31401911	     49.61203929	     -0.56502203	      1.24003739	     13.85860777	      0.24187834	    -22.20927329	      0.00000000	      0.00000000	     39.18713478	      8.48678823	      2.13659405	     60.59423449	      1.05756890	     26.67026376	      0.00000000	      0.00000000	      9.10805347	      1.38573154	    -12.81758263	     44.07269999	     15.85654887	     75.99558937	    111.52480034	     35.87808478	      0.00000000	      0.00000000	     27.54683485	      7.62541349	     70.36133173	    126.75347078	     38.85806450	      0.00000000	      0.00000000
      1.38999999	      2.29964499	     19.85506869	    -83.51055056	      0.02969358	      0.99726109	      0.31969963	     49.10824874	     -0.99627090	      1.12548497	     14.20381754	      0.24790338	    -22.37006200	      0.00000000	      0.00000000	     39.42353297	      9.05694746	      2.06469976	     62.48946005	      1.09064683	     27.15222221	      0.00000000	      0.00000000	      9.12272646	      0.90363991	    -12.81203962	     43.81481627	     15.78287953	     76.09052914	    111.44750242	     35.88405697	      0.00000000	      0.00000000	     27.34290606	      7.53123674	     70.43676365	    126.71173013	     38.86974862	      0.00000000	      0.00000000
      1.39999998	      2.66482937	     19.81205613	    -83.54271367	      0.02920501	      0.98923925	      0.32537288	     49.09557485	     -1.29585192	      0.44156924	     15.29706731	      0.26698419	    -22.20503164	      0.00000000	      0.00000000	     39.90017876	      9.32157808	      1.86692542	     64.60294632	      1.12753412	     27.95234880	      0.00000000	      0.00000000	      9.32410591	      0.66513441	    -12.99151277	     43.57007603	     15.85892575	     75.88679415	    111.39148213	     35.98223109	      0.00000000	      0.00000000	     27.29953180	      7.53101669	     70.46297573	    126.74151467	     38.99468681	      0.00000000	      0.00000000
      1.40999997	      3.23403504	     19.61760819	    -83.69402863	      0.02855677	      0.98158029	      0.33150935	     48.56012216	     -1.65512084	      0.28810108	     15.73704899	      0.27466332	    -22.44276240	      0.00000000	      0.00000000	     40.01198752	      9.76747880	      1.64506079	     66.43162068	      1.15945051	     28.37522708	      0.00000000	      0.00000000	      9.34951817	      0.22574861	    -12.93143686	     43.29745598	     15.80845078	     75.98905536	    111.32835920	     35.98805665	      0.00000000	      0.00000000	     27.06667011	      7.42798837	     70.53450050	    126.68165379	     39.00270416	      0.00000000	      0.00000000
      1.41999996	      3.74679437	     19.42012365	    -83.94533456	      0.02773364	      0.97366873	      0.33780612	     48.15367197	     -1.90842397	     -0.01048894	     16.47019366	      0.28745911	    -22.79661972	      0.00000000	      0.00000000	     40.14145890	     10.03743671	      1.24372945	     68.32610248	      1.19251545	     28.80185221	      0.00000000	      0.00000000	      9.39248806	     -0.11901273	    -12.93388898	     43.05421856	     15.78641491	     76.02715615	    111.27962986	     35.99957050	      0.00000000	      0.00000000	     26.88110454	      7.38952285	     70.58485515	    126.63652626	     39.01592537	      0.00000000	      0.00000000
      1.42999995	      4.13201739	     19.31565198	    -84.28040443	      0.02672831	      0.96523390	      0.34418997	     48.25902176	     -2.06820183	     -0.84907143	     18.00755858	      0.31429119	    -23.13961208	      0.00000000	      0.00000000	     40.40159094	     10.05609851	      0.69222677	     70.31520492	      1.22723184	     29.06322467	      0.00000000	      0.00000000	      9.58253043	     -0.26413772	    -12.85132244	     42.88366367	     15.85378406	     75.84312638	    111.24467359	     36.06780932	      0.00000000	      0.00000000	     26.79445917	      7.45767337	     70.50663816	    126.62071181	     39.10307791	      0.00000000	      0.00000000
      1.43999994	      4.66874057	     19.12306035	    -84.65645937	      0.02558601	      0.95714148	      0.35097848	     47.88950540	     -2.26980862	     -1.15690028	     18.86560162	      0.32926686	    -23.43368006	      0.00000000	      0.00000000	     40.45512044	     10.24581648	      0.15377296	     72.15414606	      1.25932742	     29.23517549	      0.00000000	      0.00000000	      9.67690820	     -0.61239357	    -12.83070912	     42.60790144	     15.80245363	     75.91683984	    111.17947644	     36.08559390	      0.00000000	      0.00000000	     26.55081831	      7.40709109	     70.55591907	    126.53402368	     39.12365461	      0.00000000	      0.00000000
      1.44999993	      5.19406650	     19.03870473	    -85.12147322	      0.02434796	      0.94860174	      0.35791018	     47.92909997	     -2.47617996	     -1.77016482	     20.30513082	      0.35439139	    -23.32504322	      0.00000000	      0.00000000	     40.62452188	     10.35536062	     -0.45316557	     74.05885906	      1.29257093	     29.34666926	      0.00000000	      0.00000000	      9.94987850	     -0.91958806	    -12.70188954	     42.41586099	     15.77375229	     75.86921587	    111.13185652	     36.15556559	      0.00000000	      0.00000000	     26.37988180	      7.46763259	     70.49310318	    126.40962491	     39.20826696	      0.00000000	      0.00000000
      1.45999992	      5.73414697	     18.90861107	    -85.60255148	      0.02298722	      0.94008621	      0.36508298	     47.80043743	     -2.65232197	     -2.17227782	     21.51506430	      0.37550871	    -23.10595214	      0.00000000	      0.00000000	     40.72420407	     10.47044323	     -1.05048252	     75.97190451	      1.32595987	     29.42335432	      0.00000000	      0.00000000	     10.18764662	     -1.22155580	    -12.65977652	     42.22128365	     15.75777273	     75.91156244	    111.04660318	     36.22386300	      0.00000000	      0.00000000	     26.19981419	      7.47563744	     70.46133675	    126.28849219	     39.29983560	      0.00000000	      0.00000000
      1.46999991	      6.22154945	     18.76803958	    -86.12221295	      0.02145088	      0.93148084	      0.37246425	     47.64381980	     -2.73241567	     -2.48290348	     22.64016877	      0.39514549	    -23.06272738	      0.00000000	      0.00000000	     40.82518834	     10.47880979	     -1.66422640	     77.94592367	      1.36041301	     29.47457578	      0.00000000	      0.00000000	     10.42708884	     -1.43852246	    -12.62010259	     42.08212881	     15.74580183	     75.95651000	    110.98073570	     36.27199907	      0.00000000	      0.00000000	     26.06576157	      7.50143671	     70.45586379	    126.18046656	     39.36140241	      0.00000000	      0.00000000
      1.47999990	      6.54603809	     18.69024248	    -86.60201792	      0.01956357	      0.92273001	      0.37990293	     47.51033235	     -2.51102249	     -2.34042580	     23.60344045	      0.41195775	    -22.54798940	      0.00000000	      0.00000000	     41.04423470	     10.26126213	     -2.22021741	     80.03408988	      1.39685838	     29.50230475	      0.00000000	      0.00000000	     10.75078721	     -1.51109678	    -12.67324882	     41.96517872	     15.73911608	     76.00415771	    110.92417785	     36.30761708	      0.00000000	      0.00000000	     25.97439612	      7.53044142	     70.45242199	    126.07497955	     39.40508902	      0.00000000	      0.00000000
